<svg width="25" height="29" viewBox="0 0 25 29" fill="none" xmlns="http://www.w3.org/2000/svg">
<path d="M18.5415 0H6.45817C4.85641 0.00191866 3.3208 0.639066 2.18819 1.77168C1.05557 2.9043 0.418423 4.4399 0.416504 6.04167V24.1667C0.416504 25.4485 0.925729 26.6779 1.83215 27.5843C2.73858 28.4908 3.96796 29 5.24984 29H18.5415C20.1433 28.9981 21.6789 28.3609 22.8115 27.2283C23.9441 26.0957 24.5813 24.5601 24.5832 22.9583V6.04167C24.5813 4.4399 23.9441 2.9043 22.8115 1.77168C21.6789 0.639066 20.1433 0.00191866 18.5415 0V0ZM22.1665 6.04167V19.3333H7.66651V2.41667H18.5415C19.5029 2.41667 20.425 2.79858 21.1048 3.4784C21.7846 4.15822 22.1665 5.08026 22.1665 6.04167ZM5.24984 2.6245V19.3333C4.40114 19.3326 3.56736 19.5565 2.83317 19.9822V6.04167C2.83328 5.29212 3.06573 4.56104 3.49852 3.94908C3.93131 3.33711 4.54316 2.87435 5.24984 2.6245ZM18.5415 26.5833H5.24984C4.6089 26.5833 3.99421 26.3287 3.541 25.8755C3.08778 25.4223 2.83317 24.8076 2.83317 24.1667C2.83317 23.5257 3.08778 22.911 3.541 22.4578C3.99421 22.0046 4.6089 21.75 5.24984 21.75H22.1665V22.9583C22.1665 23.9197 21.7846 24.8418 21.1048 25.5216C20.425 26.2014 19.5029 26.5833 18.5415 26.5833Z" fill="currentColor"/>
</svg>
